<?xml version="1.0" encoding="UTF-8"?>
<svg id="Layer_1" data-name="Layer 1" xmlns="http://www.w3.org/2000/svg" xmlns:xlink="http://www.w3.org/1999/xlink" viewBox="0 0 405.96 104.17">
  <defs>
    <style>
      .cls-1 {
        clip-path: url(#clippath-7);
      }

      .cls-2 {
        clip-path: url(#clippath-1);
      }

      .cls-3 {
        clip-path: url(#clippath-4);
      }

      .cls-4 {
        fill: #33333;
      }
    </style>
    <clipPath id="clippath-1">
      <path class="cls-4" d="M44.55,50.86h0v-1.7s0,1.7,0,1.7Zm-.17-28.78l.16,27.08-.12-27.08h-.04Zm0-10.22l.05,10.22h3.66v28.62c4.39-.56,8.32-2.58,11.29-5.55,3.53-3.53,5.71-8.4,5.71-13.79,0-10.77-8.73-19.5-19.5-19.5h-1.21Z"/>
    </clipPath>
    <clipPath id="clippath-4">
      <path class="cls-4" d="M22.3,17.56c-3.53,3.53-5.71,8.41-5.71,13.79,0,9.92,7.41,18.11,16.99,19.34V12.01c-4.38,.56-8.31,2.58-11.28,5.55"/>
    </clipPath>
    <clipPath id="clippath-7">
      <polygon class="cls-4" points="35.75 11.85 35.75 93.45 55.88 93.45 55.88 84.17 45.98 84.17 45.98 69.54 49.92 74.9 50.19 74.87 53.53 74.87 53.53 65.63 49.92 65.63 49.92 70.99 45.98 65.63 45.98 11.85 35.75 11.85"/>
    </clipPath>
  </defs>
  <path class="cls-4" d="M106.35,37.09c-.63,3.74-3.12,7.26-8.75,7.26-6.95,0-9.49-5.13-9.49-11.68s3.14-11.55,9.67-11.55c5.79,0,8.16,3.64,8.45,7.25h-3.92c-.5-2.13-1.47-4.01-4.66-4.01-4,0-5.43,3.99-5.43,8.29s1.27,8.48,5.47,8.48c3.13,0,4.21-2.06,4.73-4.04h3.94Z"/>
  <polygon class="cls-4" points="118.19 21.76 122.17 21.76 122.17 30.88 131.22 30.88 131.22 21.76 135.21 21.76 135.21 44.35 131.22 44.35 131.22 34.21 122.17 34.21 122.17 44.35 118.19 44.35 118.19 21.76"/>
  <path class="cls-4" d="M148.22,38.47l-1.8,5.88h-3.94c.74-2.19,6.24-20.11,7.06-22.59h5.13l7.4,22.59h-4.21l-1.9-5.88h-7.75Zm6.92-3.33c-1.58-5-2.64-8.28-3.12-10.29h-.04c-.58,2.56-1.65,6.07-2.96,10.29h6.13Z"/>
  <path class="cls-4" d="M170.33,44.35V21.76h5.14c7.5,14.54,8.63,16.75,9,17.8h.06c-.22-2.79-.25-6.47-.25-10.15v-7.65h3.67v22.59h-4.89c-8.04-15.91-8.81-17.58-9.19-18.46h-.03c.16,2.88,.17,6.74,.17,10.78v7.67h-3.66Z"/>
  <path class="cls-4" d="M214.76,44.02h-2.97c-.15-.71-.26-1.72-.31-2.84-1.17,2.37-3.42,3.17-6.39,3.17-5.91,0-8.94-4.96-8.94-11.5s3.58-11.73,10.12-11.73c5.18,0,7.93,2.86,8.53,6.7h-3.92c-.51-1.77-1.68-3.46-4.83-3.46-4.18,0-5.8,3.89-5.8,8.5s1.64,8.26,5.67,8.26,4.87-2.71,4.87-6.04v-.12h-5.11v-3.41h9.06v12.47Z"/>
  <path class="cls-4" d="M226.85,21.76h8.07c4.23,0,7.75,2.18,7.75,6.59s-3.34,6.95-8.13,6.95h-3.69v9.06h-4V21.76Zm4,10.35h3.46c2.62,0,4.3-.95,4.3-3.68,0-2.42-1.72-3.47-4.19-3.47h-3.56v7.15Z"/>
  <rect class="cls-4" x="257.55" y="21.76" width="3.99" height="22.59"/>
  <path class="cls-4" d="M277.79,44.35V21.76h5.14c7.5,14.54,8.63,16.75,9,17.8h.06c-.22-2.79-.25-6.47-.25-10.15v-7.65h3.67v22.59h-4.89c-8.04-15.91-8.81-17.58-9.19-18.46h-.03c.16,2.88,.17,6.74,.17,10.78v7.67h-3.66Z"/>
  <path class="cls-4" d="M322.22,44.02h-2.97c-.15-.71-.26-1.72-.31-2.84-1.17,2.37-3.42,3.17-6.39,3.17-5.91,0-8.94-4.96-8.94-11.5s3.58-11.73,10.12-11.73c5.18,0,7.93,2.86,8.53,6.7h-3.92c-.51-1.77-1.68-3.46-4.83-3.46-4.18,0-5.8,3.89-5.8,8.5s1.64,8.26,5.67,8.26,4.87-2.71,4.87-6.04v-.12h-5.11v-3.41h9.06v12.47Z"/>
  <polygon class="cls-4" points="92.15 62.3 96.11 62.3 96.11 81.47 106.41 81.47 105.94 84.76 92.15 84.76 92.15 62.3"/>
  <path class="cls-4" d="M123.03,78.91l-1.79,5.85h-3.91c.73-2.18,6.2-19.99,7.02-22.46h5.1l7.36,22.46h-4.18l-1.89-5.85h-7.7Zm6.88-3.31c-1.57-4.97-2.62-8.23-3.1-10.22h-.04c-.57,2.55-1.64,6.04-2.95,10.22h6.09Z"/>
  <path class="cls-4" d="M144.8,62.3h8.42c4.62,0,6.92,2.42,6.92,5.65,0,2.88-1.65,4.1-2.9,4.59,1.62,.64,3.65,2.21,3.65,5.48,0,4.32-3.21,6.74-7.87,6.74h-8.22v-22.46Zm7.68,8.98c2.65,0,3.79-.93,3.79-2.95s-1.29-2.97-3.56-2.97h-4.02v5.92h3.79Zm-3.79,10.45h4.03c2.34,0,4.13-1.12,4.13-3.69,0-2.36-1.43-3.71-4.45-3.71h-3.71v7.39Z"/>
  <path class="cls-4" d="M189.48,73.08c0,6.46-3.08,11.68-9.99,11.68s-9.7-5.2-9.7-11.7c0-5.65,3.04-11.39,10-11.39,6.59,0,9.69,5.23,9.69,11.42m-15.58-.03c0,4.75,1.91,8.51,5.77,8.51,4.15,0,5.74-3.57,5.74-8.46,0-4.48-1.6-8.22-5.79-8.22s-5.72,3.64-5.72,8.18"/>
  <path class="cls-4" d="M202.41,75.16v9.6h-3.9v-22.46h8.74c4.15,0,7.09,2.06,7.09,5.98,0,3.12-1.72,4.59-3.56,5.25,2.27,.82,3.14,2.62,3.14,5.49v.52c0,2.02,.09,3.93,.3,5.21h-3.84c-.32-.93-.41-2.64-.41-5.25v-.54c0-2.78-1.01-3.8-4.21-3.8h-3.35Zm0-3.18h3.67c2.43,0,4.3-.67,4.3-3.38,0-2.19-1.54-3.12-3.66-3.12h-4.31v6.5Z"/>
  <path class="cls-4" d="M229.17,78.91l-1.79,5.85h-3.91c.73-2.18,6.2-19.99,7.02-22.46h5.1l7.36,22.46h-4.18l-1.89-5.85h-7.7Zm6.88-3.31c-1.57-4.97-2.62-8.23-3.1-10.22h-.04c-.57,2.55-1.64,6.04-2.95,10.22h6.09Z"/>
  <polygon class="cls-4" points="257.99 65.61 251.74 65.61 251.74 62.3 268.25 62.3 268.25 65.61 261.98 65.61 261.98 84.76 257.99 84.76 257.99 65.61"/>
  <path class="cls-4" d="M296.62,73.08c0,6.46-3.08,11.68-9.98,11.68s-9.7-5.2-9.7-11.7c0-5.65,3.04-11.39,9.99-11.39,6.59,0,9.69,5.23,9.69,11.42m-15.58-.03c0,4.75,1.9,8.51,5.77,8.51,4.15,0,5.74-3.57,5.74-8.46,0-4.48-1.6-8.22-5.79-8.22s-5.72,3.64-5.72,8.18"/>
  <path class="cls-4" d="M309.55,75.16v9.6h-3.9v-22.46h8.74c4.15,0,7.09,2.06,7.09,5.98,0,3.12-1.72,4.59-3.56,5.25,2.27,.82,3.14,2.62,3.14,5.49v.52c0,2.02,.09,3.93,.3,5.21h-3.84c-.32-.93-.41-2.64-.41-5.25v-.54c0-2.78-1.01-3.8-4.21-3.8h-3.35Zm0-3.18h3.67c2.44,0,4.3-.67,4.3-3.38,0-2.19-1.54-3.12-3.66-3.12h-4.31v6.5Z"/>
  <path class="cls-4" d="M338.34,84.76v-8.6c0-.24-.05-.48-.19-.68l-7.17-13.18h4.48c1.68,3.43,4.08,8.13,5.05,10.12,1.56-3.21,3.47-6.9,5.06-10.12h4.15l-7.25,13.13c-.12,.19-.17,.35-.17,.64v8.69h-3.96Z"/>
  <g>
    <path class="cls-4" d="M44.55,50.86h0v-1.7s0,1.7,0,1.7Zm-.17-28.78l.16,27.08-.12-27.08h-.04Zm0-10.22l.05,10.22h3.66v28.62c4.39-.56,8.32-2.58,11.29-5.55,3.53-3.53,5.71-8.4,5.71-13.79,0-10.77-8.73-19.5-19.5-19.5h-1.21Z"/>
    <g class="cls-2">
      <rect class="cls-4" x="44.38" y="11.86" width="20.71" height="39"/>
    </g>
  </g>
  <g>
    <path class="cls-4" d="M22.3,17.56c-3.53,3.53-5.71,8.41-5.71,13.79,0,9.92,7.41,18.11,16.99,19.34V12.01c-4.38,.56-8.31,2.58-11.28,5.55"/>
    <g class="cls-3">
      <rect class="cls-4" x="16.59" y="12.01" width="16.99" height="38.67"/>
    </g>
  </g>
  <g>
    <polygon class="cls-4" points="35.75 11.85 35.75 93.45 55.88 93.45 55.88 84.17 45.98 84.17 45.98 69.54 49.92 74.9 50.19 74.87 53.53 74.87 53.53 65.63 49.92 65.63 49.92 70.99 45.98 65.63 45.98 11.85 35.75 11.85"/>
    <g class="cls-1">
      <rect class="cls-4" x="35.75" y="11.85" width="20.12" height="81.6"/>
    </g>
  </g>
</svg>
